HIERARCHY
ROOT ui
{
	 OFFSET 0 0 0
	 CHANNELS 3 XPosition YPosition Z Position
	 EndSite
	 {
	 OFFSET 0 -1 0
	 }
}
ROOT li
{
	 OFFSET 0 0 0
	 CHANNELS 3 XPosition YPosition Z Position
	 EndSite
	 {
	 OFFSET 0 -1 0
	 }
}
ROOT ul
{
	 OFFSET 0 0 0
	 CHANNELS 3 XPosition YPosition Z Position
	 EndSite
	 {
	 OFFSET 0 -1 0
	 }
}
ROOT ll
{
	 OFFSET 0 0 0
	 CHANNELS 3 XPosition YPosition Z Position
	 EndSite
	 {
	 OFFSET 0 -1 0
	 }
}
ROOT tt
{
	 OFFSET 0 0 0
	 CHANNELS 3 XPosition YPosition Z Position
	 EndSite
	 {
	 OFFSET 0 -1 0
	 }
}
ROOT tb
{
	 OFFSET 0 0 0
	 CHANNELS 3 XPosition YPosition Z Position
	 EndSite
	 {
	 OFFSET 0 -1 0
	 }
}
ROOT td
{
	 OFFSET 0 0 0
	 CHANNELS 3 XPosition YPosition Z Position
	 EndSite
	 {
	 OFFSET 0 -1 0
	 }
}
ROOT v
{
	 OFFSET 0 0 0
	 CHANNELS 3 XPosition YPosition Z Position
	 EndSite
	 {
	 OFFSET 0 -1 0
	 }
}
ROOT bn
{
	 OFFSET 0 0 0
	 CHANNELS 3 XPosition YPosition Z Position
	 EndSite
	 {
	 OFFSET 0 -1 0
	 }
}
MOTION
Frames: 32
Frame Time: 0.002
0.05491803741455078	-0.0013591909408569335	0		0.46483935546875	-2.557406982421875	0		-0.941862548828125	0.16274273681640625	0		-0.4135665283203125	-3.146052978515625	0		1.895809814453125	-0.8004526977539063	0		3.472666015625	-0.5387091674804687	0		4.732490234375	-0.4184997863769531	0		5.8936630859375	0.29316268920898436	0		-0.04668695831298828	5.9716728515625	0		
-0.0032657339572906494	0.004651126861572266	0		0.4906046142578125	-2.562563720703125	0		-0.8762481689453125	0.15396853637695312	0		-0.37975125122070313	-3.1493564453125	0		1.852514404296875	-0.8045819702148438	0		3.523421630859375	-0.53910302734375	0		4.728162109375	-0.42406951904296875	0		5.8933916015625	0.29358065795898436	0		-0.012109660148620605	5.97636865234375	0		
0.0013744490146636963	-2.0881199836730958E-4	0		0.486341796875	-2.567278564453125	0		-0.890696044921875	0.1433435516357422	0		-0.37992221069335935	-3.14916064453125	0		1.91149072265625	-0.859140625	0		3.499071044921875	-0.5444232177734375	0		4.72788916015625	-0.4236825256347656	0		5.87999462890625	0.2871947021484375	0		-0.04670326614379883	5.971056640625	0		
0.0010541789531707763	1.7196999862790107E-5	0		0.5090148010253907	-2.574356689453125	0		-0.8933157348632812	0.12256711578369141	0		-0.3899864196777344	-3.138809326171875	0		1.9020484619140625	-0.8697176513671875	0		3.491616943359375	-0.5549703979492188	0		4.7324580078125	-0.432353271484375	0		5.8765380859375	0.27867813110351564	0		-0.04724141311645508	5.97128125	0		
-0.034282989501953125	0.0017455790042877196	0		0.47772705078125	-2.575665771484375	0		-0.89191259765625	0.10574800872802734	0		-0.37530047607421874	-3.14379345703125	0		1.9072628173828126	-0.9024915161132813	0		3.47811572265625	-0.5664239501953126	0		4.72521728515625	-0.4248483581542969	0		5.8720478515625	0.27018344116210935	0		-0.045850955963134765	5.96849072265625	0		
3.098520040512085E-4	5.053110122680664E-4	0		0.4962024230957031	-2.59166357421875	0		-0.8895433959960938	0.08892561340332031	0		-0.43737890625	-3.128694091796875	0		1.8748380126953126	-0.9067289428710937	0		3.525782958984375	-0.5637229614257813	0		4.72971630859375	-0.4335028076171875	0		5.8667607421875	0.2787069396972656	0		-0.04546364212036133	5.96772412109375	0		
-0.027109807968139648	0.001136672019958496	0		0.501952880859375	-2.585474853515625	0		-0.8890801391601563	0.08113734436035157	0		-0.3576031188964844	-3.1225673828125	0		1.915095458984375	-0.931976318359375	0		3.489258544921875	-0.5718433837890625	0		4.7313369140625	-0.4311112976074219	0		5.86221826171875	0.2712222900390625	0		-0.028150043487548827	5.963728515625	0		
-5.607439875602722E-4	0.0010198160409927368	0		0.5115514221191406	-2.588337158203125	0		-0.9018076782226563	0.06153386688232422	0		-0.4346861572265625	-3.103254150390625	0		1.9063470458984375	-0.9555379028320312	0		3.50382861328125	-0.5716720581054687	0		4.7309033203125	-0.43068881225585937	0		5.8576357421875	0.26274029541015625	0		-0.04298373031616211	5.951181640625	0		
-0.031063709259033203	-0.001306427001953125	0		0.5180381469726563	-2.598156982421875	0		-0.9045646362304688	0.040790332794189456	0		-0.355980712890625	-3.099105224609375	0		1.9137076416015626	-0.9703226318359375	0		3.511092529296875	-0.5924005737304687	0		4.7442451171875	-0.445458251953125	0		5.85306591796875	0.25625851440429687	0		-0.06257036972045898	5.95770068359375	0		
0.04844764709472656	-0.0031583919525146483	0		0.5166214599609374	-2.600870849609375	0		-0.8982135009765625	0.027916664123535155	0		-0.4718026123046875	-3.059265869140625	0		1.894096923828125	-0.9827376708984376	0		3.510784423828125	-0.5820237426757813	0		4.75095849609375	-0.4331346130371094	0		5.85257568359375	0.2557192230224609	0		-0.06128984451293945	5.9549248046875	0		
-0.004990260124206543	-0.0011810510158538818	0		0.4923576354980469	-2.593276611328125	0		-0.89678173828125	0.02010304069519043	0		-0.43283538818359374	-3.036576416015625	0		1.9053165283203124	-1.0085860595703124	0		3.5270166015625	-0.6058825073242188	0		4.7625166015625	-0.4328818359375	0		5.8569853515625	0.2471092529296875	0		-0.06196266174316406	5.95516845703125	0		
0.05060966491699219	0.0012839640378952027	0		0.4940602111816406	-2.590051025390625	0		-0.9003967895507813	0.0073463511466979985	0		-0.48580877685546875	-3.010632568359375	0		1.90491845703125	-1.0082796630859374	0		3.5207138671875	-0.5974334716796875	0		4.7620966796875	-0.43246792602539064	0		5.84343115234375	0.23974363708496094	0		0.08961004638671875	5.9713115234375	0		
-0.005836308002471924	-7.261660099029541E-4	0		0.5186807861328125	-2.595153076171875	0		-0.898040283203125	-0.009507766723632812	0		-0.4597061767578125	-2.981789794921875	0		1.893357177734375	-1.0218324584960938	0		3.526217041015625	-0.60515625	0		4.76860693359375	-0.43915591430664064	0		5.84279248046875	0.22419474792480468	0		-0.0784292221069336	5.94382568359375	0		
-0.010274157524108887	-0.004467474937438965	0		0.4894048156738281	-2.5945322265625	0		-0.9075182495117188	-0.01621660041809082	0		-0.5024736328125	-2.9450205078125	0		1.890782958984375	-1.0385230712890625	0		3.518721923828125	-0.6147131958007812	0		4.7682412109375	-0.4387591247558594	0		5.8254013671875	0.22486709594726562	0		-0.04398820114135742	5.9485478515625	0		
-0.006578357219696045	-3.3796799182891847E-4	0		0.516123291015625	-2.596694580078125	0		-0.9000537719726562	-0.029176876068115233	0		-0.49735748291015625	-2.918927001953125	0		1.882331787109375	-1.048150634765625	0		3.524279296875	-0.6224646606445312	0		4.7648193359375	-0.4443368835449219	0		5.829142578125	0.23323623657226564	0		-0.09562743377685547	5.94642529296875	0		
-0.010965743064880372	-0.004119924068450928	0		0.4660238037109375	-2.586831787109375	0		-0.8976170654296876	-0.046089530944824215	0		-0.5220930786132812	-2.88344775390625	0		1.89672802734375	-1.0711107177734376	0		3.522148193359375	-0.6091295776367187	0		4.7777880859375	-0.4231548767089844	0		5.8336630859375	0.22357362365722655	0		-0.06114178085327148	5.95110986328125	0		
-0.004178047180175781	0.0029254329204559328	0		0.5238182373046875	-2.587456298828125	0		-0.89111181640625	-0.06007868194580078	0		-0.4867837219238281	-2.846804931640625	0		1.890560791015625	-1.0638111572265625	0		3.51066455078125	-0.6236934814453124	0		4.77544482421875	-0.42678997802734375	0		5.81613232421875	0.20818597412109374	0		-0.07881307983398438	5.94247900390625	0		
-0.007494077205657959	8.359900116920472E-5	0		0.4837323608398437	-2.5807783203125	0		-0.899478759765625	-0.06688877868652343	0		-0.4975513610839844	-2.8175615234375	0		1.898125244140625	-1.07872314453125	0		3.510414306640625	-0.6234330444335937	0		4.781064453125	-0.4355582275390625	0		5.80684912109375	0.20866160583496093	0		-0.04426628494262695	5.94712109375	0		
0.0412077407836914	-0.004482460021972656	0		0.5375238647460937	-2.586391845703125	0		-0.9069306030273437	-0.08273630523681641	0		-0.5022070007324219	-2.78242431640625	0		1.901793701171875	-1.08860693359375	0		3.52800927734375	-0.6374400634765625	0		4.7749638671875	-0.4261934814453125	0		5.80249365234375	0.20104214477539062	0		-0.044744892120361326	5.9472119140625	0		
-0.038984970092773436	-0.0033404018878936768	0		0.4834974975585937	-2.580579345703125	0		-0.9011950073242188	-0.08778450775146485	0		-0.5078678283691406	-2.750299072265625	0		1.9175679931640626	-1.0936787109375	0		3.516050048828125	-0.6210741577148438	0		4.7806591796875	-0.43501763916015623	0		5.8071640625	0.1922718505859375	0		-0.07827001953125	5.94072119140625	0		
0.040850337982177735	-0.004369862079620361	0		0.5124361572265625	-2.58090673828125	0		-0.8985769653320312	-0.10481577301025391	0		-0.5813384399414062	-2.706290771484375	0		1.88844140625	-1.0941754150390626	0		3.527701171875	-0.6370565185546875	0		4.78563818359375	-0.42586016845703123	0		5.81031982421875	0.2164940948486328	0		-0.07964196014404297	5.9417734375	0		
-0.005166028022766113	0.0032613720893859863	0		0.49053985595703126	-2.571578369140625	0		-0.8927542724609375	-0.10991176605224609	0		-0.5808319702148438	-2.667299072265625	0		1.9202451171875	-1.103514404296875	0		3.532650390625	-0.633975830078125	0		4.797525390625	-0.4268258361816406	0		5.8068779296875	0.19276847839355468	0		-0.07800302124023438	5.9397607421875	0		
0.04470480728149414	-0.0014104540348052978	0		0.5066119689941406	-2.567781005859375	0		-0.9009141235351562	-0.11684357452392578	0		-0.6081939086914062	-2.620958251953125	0		1.880203369140625	-1.1039207763671874	0		3.5204296875	-0.6466959838867188	0		4.782390625	-0.43246160888671875	0		5.8067998046875	0.19296868896484376	0		-0.07927298736572265	5.94076416015625	0		
-0.035308563232421875	6.226800084114074E-4	0		0.47969515991210937	-2.565435302734375	0		-0.9031029052734375	-0.12887646484375	0		-0.6048329467773438	-2.598050537109375	0		1.912085205078125	-1.1133096923828125	0		3.522391357421875	-0.6486312866210937	0		4.78441162109375	-0.42935403442382813	0		5.79776025390625	0.19325755310058593	0		-0.04543376159667969	5.9462802734375	0		
0.04062799835205078	-0.0044348111152648926	0		0.5067468872070312	-2.56782763671875	0		-0.90120849609375	-0.13698289489746093	0		-0.6343914184570313	-2.570726806640625	0		1.8741478271484375	-1.1107950439453125	0		3.522025146484375	-0.6775638427734375	0		4.78238232421875	-0.43222091674804686	0		5.8026171875	0.18333200073242187	0		-0.07773623657226562	5.93865185546875	0		
-0.035295555114746094	4.98652994632721E-4	0		0.49079315185546873	-2.5716708984375	0		-0.8962537841796875	-0.1421476287841797	0		-0.5821001586914063	-2.55650537109375	0		1.88907958984375	-1.120004150390625	0		3.546391357421875	-0.6528428344726562	0		4.78753125	-0.42320803833007814	0		5.796958984375	0.20852081298828126	0		-0.06277550888061524	5.9483798828125	0		
-0.005230280876159668	0.003013370990753174	0		0.4891226501464844	-2.554719970703125	0		-0.8911820678710938	-0.13932940673828126	0		-0.6584879760742187	-2.517600830078125	0		1.8891414794921875	-1.120036376953125	0		3.503192626953125	-0.67125732421875	0		4.80059716796875	-0.4213248291015625	0		5.7928759765625	0.20065904235839843	0		-0.07904248809814453	5.93950048828125	0		
-0.008237089157104492	-5.2041999995708464E-5	0		0.49435858154296874	-2.544877685546875	0		-0.9002368774414062	-0.14634074401855468	0		-0.6042178955078125	-2.505435302734375	0		1.913124755859375	-1.126402587890625	0		3.511112060546875	-0.6813672485351563	0		4.7916689453125	-0.41917550659179686	0		5.78881103515625	0.19377157592773436	0		-0.0781917266845703	5.93838037109375	0		
-0.008205275535583496	-1.717350035905838E-4	0		0.47638119506835935	-2.550747314453125	0		-0.900201171875	-0.1464842529296875	0		-0.6849154663085938	-2.489509765625	0		1.8852415771484374	-1.1221041259765625	0		3.502057861328125	-0.689274169921875	0		4.7935146484375	-0.43419192504882814	0		5.77983837890625	0.19392477416992188	0		-0.07930533599853516	5.93927197265625	0		
-0.012228474617004395	-0.004251710891723633	0		0.4945509338378906	-2.54510400390625	0		-0.9001686401367187	-0.1466392822265625	0		-0.654708984375	-2.481052734375	0		1.897127197265625	-1.1353453369140625	0		3.528154052734375	-0.68565966796875	0		4.7886728515625	-0.4251396179199219	0		5.78395361328125	0.20088412475585937	0		-0.07843848419189453	5.93812451171875	0		
-0.01309792423248291	0.0036165928840637207	0		0.4806245422363281	-2.54605322265625	0		-0.9700811767578125	-0.14188975524902345	0		-0.6824788818359375	-2.469846923828125	0		1.8841024169921874	-1.1412742919921874	0		3.512844482421875	-0.7125223999023438	0		4.78282666015625	-0.4160935363769531	0		5.7888701171875	0.19281126403808593	0		-0.0785780029296875	5.93597900390625	0		
-0.008125065803527832	-6.018059849739075E-4	0		0.5008085632324218	-2.53845751953125	0		-0.8960587768554688	-0.1430296630859375	0		-0.6753084716796875	-2.463107177734375	0		1.8841529541015625	-1.1413861083984376	0		3.53289697265625	-0.711859619140625	0		4.77570556640625	-0.428049560546875	0		5.7929951171875	0.20073207092285156	0		-0.07868257904052735	5.93582373046875	0		
